<svg width="16" height="16" viewBox="0 0 16 16" fill="none" xmlns="http://www.w3.org/2000/svg">
<path d="M7.6535 2.33255C7.78159 2.02457 8.21789 2.02457 8.34599 2.33255L9.7633 5.74019C9.81731 5.87003 9.93941 5.95874 10.0796 5.96998L13.7584 6.26491C14.0909 6.29156 14.2257 6.7065 13.9724 6.92351L11.1695 9.32447C11.0627 9.41595 11.0161 9.5595 11.0487 9.69628L11.905 13.2862C11.9824 13.6107 11.6295 13.8671 11.3448 13.6932L8.19521 11.7695C8.07521 11.6962 7.92428 11.6962 7.80427 11.7695L4.65468 13.6932C4.37002 13.8671 4.01705 13.6107 4.09444 13.2862L4.95077 9.69628C4.9834 9.5595 4.93676 9.41595 4.82996 9.32447L2.02708 6.92351C1.77375 6.70651 1.90858 6.29156 2.24107 6.26491L5.9199 5.96998C6.06007 5.95874 6.18218 5.87003 6.23618 5.74019L7.6535 2.33255Z" stroke="#FCA532" stroke-linecap="round" stroke-linejoin="round"/>
</svg>
